<svg width="46" height="16" viewBox="0 0 46 16" fill="none" xmlns="http://www.w3.org/2000/svg">
<rect width="46" height="16" fill="#C5C4C4"/>
<g id="Desktop (1920)" clip-path="url(#clip0_1313_21)">
<rect width="1920" height="8906" transform="translate(-1271 -910)" fill="#F9F9FE"/>
<g id="Frame 11808638" clip-path="url(#clip1_1313_21)">
<g id="Group 1049">
<circle id="Ellipse 1" cx="-312.23" cy="661.181" r="837.362" stroke="#EEEEEE" stroke-width="2.5"/>
<circle id="Ellipse 2" cx="-311.181" cy="662.23" r="960.009" stroke="#EEEEEE" stroke-width="2.5"/>
<circle id="Ellipse 3" cx="-311.705" cy="661.706" r="1067.46" stroke="#EEEEEE" stroke-width="2.5"/>
</g>
</g>
<g id="Frame 11808646" filter="url(#filter0_d_1313_21)">
<rect x="-130" y="-169" width="305" height="283" rx="10" fill="white"/>
<rect x="-130" y="-169" width="305" height="283" rx="10" stroke="#DBDBDB" stroke-width="1.5"/>
<g id="Frame 11808654">
<path id="Arrow 1" d="M1.23669 6.94273C0.66333 6.94273 0.198526 7.40753 0.198526 7.9809C0.198526 8.55426 0.66333 9.01906 1.23669 9.01906L1.23669 6.94273ZM45.5738 8.715C45.9793 8.30957 45.9793 7.65223 45.5738 7.2468L38.967 0.639943C38.5616 0.234514 37.9042 0.234514 37.4988 0.639943C37.0934 1.04537 37.0934 1.7027 37.4988 2.10813L43.3716 7.9809L37.4988 13.8537C37.0934 14.2591 37.0934 14.9164 37.4988 15.3219C37.9042 15.7273 38.5616 15.7273 38.967 15.3219L45.5738 8.715ZM1.23669 7.9809L1.23669 9.01906L3.41685 9.01906L3.41685 7.9809L3.41685 6.94273L1.23669 6.94273L1.23669 7.9809ZM7.77715 7.9809L7.77715 9.01906L12.1375 9.01906L12.1375 7.9809L12.1375 6.94273L7.77715 6.94273L7.77715 7.9809ZM16.4978 7.9809L16.4978 9.01907L20.8581 9.01907L20.8581 7.9809L20.8581 6.94273L16.4978 6.94273L16.4978 7.9809ZM25.2184 7.9809L25.2184 9.01907L29.5787 9.01907L29.5787 7.9809L29.5787 6.94273L25.2184 6.94273L25.2184 7.9809ZM33.939 7.9809L33.939 9.01907L38.2993 9.01907L38.2993 7.9809L38.2993 6.94273L33.939 6.94273L33.939 7.9809ZM42.6596 7.9809L42.6596 9.01907L44.8397 9.01907L44.8397 7.9809L44.8397 6.94273L42.6596 6.94273L42.6596 7.9809ZM1.23669 6.94273C0.66333 6.94273 0.198526 7.40753 0.198526 7.9809C0.198526 8.55426 0.66333 9.01906 1.23669 9.01906L1.23669 6.94273ZM45.5738 8.715C45.9793 8.30957 45.9793 7.65223 45.5738 7.2468L38.967 0.639943C38.5616 0.234514 37.9042 0.234514 37.4988 0.639943C37.0934 1.04537 37.0934 1.7027 37.4988 2.10813L43.3716 7.9809L37.4988 13.8537C37.0934 14.2591 37.0934 14.9164 37.4988 15.3219C37.9042 15.7273 38.5616 15.7273 38.967 15.3219L45.5738 8.715ZM1.23669 7.9809L1.23669 9.01906L3.41685 9.01906L3.41685 7.9809L3.41685 6.94273L1.23669 6.94273L1.23669 7.9809ZM7.77715 7.9809L7.77715 9.01906L12.1375 9.01906L12.1375 7.9809L12.1375 6.94273L7.77715 6.94273L7.77715 7.9809ZM16.4978 7.9809L16.4978 9.01907L20.8581 9.01907L20.8581 7.9809L20.8581 6.94273L16.4978 6.94273L16.4978 7.9809ZM25.2184 7.9809L25.2184 9.01907L29.5787 9.01907L29.5787 7.9809L29.5787 6.94273L25.2184 6.94273L25.2184 7.9809ZM33.939 7.9809L33.939 9.01907L38.2993 9.01907L38.2993 7.9809L38.2993 6.94273L33.939 6.94273L33.939 7.9809ZM42.6596 7.9809L42.6596 9.01907L44.8397 9.01907L44.8397 7.9809L44.8397 6.94273L42.6596 6.94273L42.6596 7.9809Z" fill="black"/>
</g>
</g>
</g>
<defs>
<filter id="filter0_d_1313_21" x="-146.75" y="-185.75" width="338.5" height="316.5" filterUnits="userSpaceOnUse" color-interpolation-filters="sRGB">
<feFlood flood-opacity="0" result="BackgroundImageFix"/>
<feColorMatrix in="SourceAlpha" type="matrix" values="0 0 0 0 0 0 0 0 0 0 0 0 0 0 0 0 0 0 127 0" result="hardAlpha"/>
<feOffset/>
<feGaussianBlur stdDeviation="8"/>
<feComposite in2="hardAlpha" operator="out"/>
<feColorMatrix type="matrix" values="0 0 0 0 0.644231 0 0 0 0 0.644231 0 0 0 0 0.644231 0 0 0 0.1 0"/>
<feBlend mode="normal" in2="BackgroundImageFix" result="effect1_dropShadow_1313_21"/>
<feBlend mode="normal" in="SourceGraphic" in2="effect1_dropShadow_1313_21" result="shape"/>
</filter>
<clipPath id="clip0_1313_21">
<rect width="1920" height="8906" fill="white" transform="translate(-1271 -910)"/>
</clipPath>
<clipPath id="clip1_1313_21">
<rect width="1921" height="599" fill="white" transform="translate(-1272 -429)"/>
</clipPath>
</defs>
</svg>
