<svg width="29" height="29" viewBox="0 0 29 29" fill="none" xmlns="http://www.w3.org/2000/svg">
<g clip-path="url(#clip0_1656_2089)">
<path fill-rule="evenodd" clip-rule="evenodd" d="M14.6585 0.877441C6.99048 0.877441 0.756104 7.11182 0.756104 14.7799C0.756104 22.4479 6.99048 28.6823 14.6585 28.6823C22.3266 28.6823 28.561 22.4479 28.561 14.7799C28.561 7.11182 22.3266 0.877441 14.6585 0.877441Z" fill="#3913C5"/>
<path fill-rule="evenodd" clip-rule="evenodd" d="M21.3816 10.094C21.7183 10.4307 21.7183 10.9846 21.3816 11.3213L13.2357 19.4673C13.0673 19.6356 12.8447 19.7225 12.622 19.7225C12.3994 19.7225 12.1767 19.6356 12.0084 19.4673L7.93539 15.3943C7.59869 15.0576 7.59869 14.5037 7.93539 14.167C8.27209 13.8303 8.82601 13.8303 9.16271 14.167L12.622 17.6263L20.1543 10.094C20.491 9.75187 21.0449 9.75187 21.3816 10.094Z" fill="white"/>
</g>
<defs>
<clipPath id="clip0_1656_2089">
<rect width="27.8049" height="27.8049" fill="white" transform="translate(0.756104 0.878418)"/>
</clipPath>
</defs>
</svg>
