<svg width="58" height="59" viewBox="0 0 58 59" fill="none" xmlns="http://www.w3.org/2000/svg">
<rect y="0.557129" width="57.5513" height="57.5513" rx="6.90616" fill="#3913C5"/>
<g clip-path="url(#clip0_1313_2705)">
<path d="M19.9104 33.8C22.8621 37.3284 26.4154 40.1065 30.4709 42.0723C32.015 42.804 34.08 43.6722 36.3806 43.821C36.5232 43.8272 36.6596 43.8334 36.8023 43.8334C38.3464 43.8334 39.5866 43.3001 40.5974 42.2025C40.6036 42.1963 40.616 42.1839 40.6222 42.1715C40.9818 41.7374 41.3911 41.3468 41.819 40.9313C42.1104 40.6522 42.4081 40.3608 42.6933 40.0631C44.0142 38.6865 44.0142 36.9378 42.6809 35.6045L38.9541 31.8776C38.3215 31.2203 37.565 30.8731 36.7713 30.8731C35.9775 30.8731 35.2148 31.2203 34.5637 31.8714L32.3436 34.0914C32.139 33.9736 31.9282 33.8682 31.7297 33.769C31.4817 33.645 31.2522 33.5271 31.0476 33.3969C29.026 32.1133 27.1905 30.439 25.4356 28.2872C24.5488 27.1648 23.9535 26.2222 23.538 25.261C24.1209 24.7339 24.6666 24.182 25.1937 23.6425C25.3798 23.4503 25.572 23.2581 25.7642 23.0658C26.434 22.3961 26.7936 21.621 26.7936 20.8334C26.7936 20.0459 26.4402 19.2707 25.7642 18.601L23.9163 16.7531C23.6993 16.536 23.4946 16.3252 23.2838 16.1081C22.8745 15.6865 22.4466 15.2524 22.025 14.8617C21.3862 14.2354 20.6359 13.9067 19.8422 13.9067C19.0546 13.9067 18.2981 14.2354 17.6345 14.8679L15.3153 17.1871C14.472 18.0305 13.9945 19.0537 13.8953 20.2381C13.7774 21.7202 14.0503 23.2953 14.7572 25.199C15.8424 28.1446 17.4795 30.8793 19.9104 33.8ZM15.4083 20.3683C15.4828 19.5436 15.799 18.8552 16.3943 18.2599L18.7011 15.9531C19.0608 15.6059 19.4577 15.426 19.8422 15.426C20.2204 15.426 20.6049 15.6059 20.9584 15.9655C21.3738 16.35 21.7645 16.7531 22.1862 17.1809C22.397 17.398 22.6141 17.615 22.8311 17.8383L24.679 19.6862C25.0635 20.0707 25.262 20.4613 25.262 20.8458C25.262 21.2303 25.0635 21.621 24.679 22.0054C24.4868 22.1977 24.2946 22.3961 24.1023 22.5883C23.5256 23.1712 22.9861 23.7231 22.3908 24.2502C22.3784 24.2626 22.3722 24.2688 22.3598 24.2812C21.8451 24.7959 21.9257 25.2858 22.0498 25.6579C22.056 25.6765 22.0622 25.6889 22.0684 25.7075C22.5459 26.8547 23.2094 27.9461 24.245 29.2484C26.1053 31.5428 28.0649 33.3225 30.2229 34.693C30.4895 34.8666 30.7748 35.003 31.0414 35.1394C31.2895 35.2635 31.5189 35.3813 31.7235 35.5115C31.7483 35.5239 31.7669 35.5363 31.7917 35.5487C31.9964 35.6541 32.1948 35.7037 32.3933 35.7037C32.8893 35.7037 33.2118 35.3875 33.3172 35.2821L35.6365 32.9628C35.9961 32.6032 36.3868 32.4109 36.7713 32.4109C37.2425 32.4109 37.627 32.7024 37.8689 32.9628L41.6082 36.6959C42.3523 37.4401 42.3461 38.2462 41.5895 39.0338C41.3291 39.3128 41.0562 39.5795 40.7648 39.8585C40.3307 40.2802 39.878 40.7143 39.4688 41.2041C38.7556 41.9731 37.9061 42.3328 36.8085 42.3328C36.703 42.3328 36.5914 42.3266 36.486 42.3204C34.452 42.1901 32.5607 41.3964 31.1406 40.7205C27.2835 38.8539 23.8977 36.206 21.0886 32.845C18.7756 30.0607 17.2191 27.4686 16.1897 24.6905C15.551 22.9852 15.3091 21.6148 15.4083 20.3683Z" fill="white"/>
</g>
<defs>
<clipPath id="clip0_1313_2705">
<rect width="29.9267" height="29.9267" fill="white" transform="translate(13.8125 13.9097)"/>
</clipPath>
</defs>
</svg>
