<svg width="58" height="59" viewBox="0 0 58 59" fill="none" xmlns="http://www.w3.org/2000/svg">
<rect y="0.557129" width="57.5513" height="57.5513" rx="6.90616" fill="#3913C5"/>
<g clip-path="url(#clip0_1313_2696)">
<path d="M29.0464 43.7379C29.209 43.9818 29.4828 44.1284 29.7759 44.1284C30.0691 44.1284 30.3429 43.9819 30.5055 43.7379C32.5804 40.6256 35.6366 36.7818 37.7663 32.8726C39.4692 29.7469 40.297 27.081 40.297 24.7228C40.297 18.9214 35.5773 14.2017 29.7759 14.2017C23.9746 14.2017 19.2548 18.9214 19.2548 24.7228C19.2548 27.081 20.0827 29.7469 21.7856 32.8726C23.9137 36.7788 26.9757 40.632 29.0464 43.7379ZM29.7759 15.9552C34.6104 15.9552 38.5435 19.8883 38.5435 24.7228C38.5435 26.7805 37.7856 29.1719 36.2265 32.0337C34.3907 35.4033 31.7711 38.8215 29.7759 41.695C27.7811 38.8219 25.1613 35.4035 23.3254 32.0337C21.7663 29.1719 21.0084 26.7805 21.0084 24.7228C21.0084 19.8883 24.9415 15.9552 29.7759 15.9552Z" fill="white"/>
<path d="M29.776 29.9845C32.6767 29.9845 35.0366 27.6246 35.0366 24.7239C35.0366 21.8233 32.6767 19.4634 29.776 19.4634C26.8753 19.4634 24.5155 21.8233 24.5155 24.7239C24.5155 27.6246 26.8753 29.9845 29.776 29.9845ZM29.776 21.2169C31.7098 21.2169 33.283 22.7902 33.283 24.7239C33.283 26.6577 31.7098 28.231 29.776 28.231C27.8422 28.231 26.269 26.6577 26.269 24.7239C26.269 22.7902 27.8422 21.2169 29.776 21.2169Z" fill="white"/>
</g>
<defs>
<clipPath id="clip0_1313_2696">
<rect width="29.9267" height="29.9267" fill="white" transform="translate(14.8125 14.2046)"/>
</clipPath>
</defs>
</svg>
