<svg width="58" height="58" viewBox="0 0 58 58" fill="none" xmlns="http://www.w3.org/2000/svg">
<rect y="0.389648" width="57.5513" height="57.5513" rx="6.90616" fill="#3913C5"/>
<path d="M45.4402 20.0822C45.4402 18.5636 44.2048 17.3281 42.6862 17.3281H18.2676C16.7493 17.3282 15.5141 18.5631 15.5135 20.0826V20.0831V36.987C15.5135 38.5245 16.7616 39.742 18.2685 39.742H42.6852C44.2227 39.742 45.4402 38.494 45.4402 36.987V20.0831C45.4402 20.083 45.4402 20.0829 45.4402 20.0827C45.4402 20.0826 45.4402 20.0824 45.4402 20.0822ZM18.2676 19.0817H42.6862C43.2379 19.0817 43.6867 19.5306 43.6867 20.0836C43.6867 20.3775 43.5407 20.6503 43.2957 20.8135L31.0325 28.9894C30.695 29.2143 30.2589 29.2144 29.9214 28.9894C29.9214 28.9894 17.6578 20.8133 17.6581 20.8135C17.6581 20.8135 17.6579 20.8134 17.6578 20.8133C17.4131 20.6503 17.2671 20.3775 17.2671 20.0822C17.2671 19.5305 17.7159 19.0817 18.2676 19.0817ZM42.6853 37.9884H18.2685C17.7226 37.9884 17.2671 37.5471 17.2671 36.987V22.6604L28.9486 30.4483C29.4129 30.7578 29.9449 30.9125 30.4769 30.9125C31.009 30.9125 31.5411 30.7578 32.0052 30.4483L43.6867 22.6604V36.9871C43.6867 37.5329 43.2454 37.9884 42.6853 37.9884Z" fill="white"/>
</svg>
