<svg width="30" height="30" viewBox="0 0 30 30" fill="none" xmlns="http://www.w3.org/2000/svg">
<path d="M20.6203 0C26.3854 0 30 3.58828 30 9.37969V12.8631L29.9895 13.0184C29.9518 13.2932 29.8158 13.5452 29.6067 13.7275C29.3977 13.9099 29.1296 14.0104 28.8521 14.0104H28.8393L28.6576 13.9963C28.3871 13.9524 28.1416 13.8121 27.9664 13.6014C27.7911 13.3906 27.6981 13.1236 27.7043 12.8496V9.37969C27.7043 4.81523 25.1848 2.2957 20.6203 2.2957H9.37969C4.80234 2.2957 2.2957 4.81523 2.2957 9.37969V20.6332C2.2957 25.1977 4.81523 27.7043 9.37969 27.7043H20.6203C25.1977 27.7043 27.7043 25.1848 27.7043 20.6332C27.7043 20.3288 27.8252 20.0368 28.0405 19.8215C28.2558 19.6063 28.5477 19.4853 28.8521 19.4853C29.1566 19.4853 29.4485 19.6063 29.6638 19.8215C29.8791 20.0368 30 20.3288 30 20.6332C30 26.4117 26.4117 30 20.6332 30H9.37969C3.58828 30 0 26.4117 0 20.6332V9.37969C0 3.58828 3.58828 0 9.37969 0L20.6203 0ZM8.62793 11.3326C8.77869 11.3376 8.92699 11.3723 9.06433 11.4347C9.20166 11.4971 9.32534 11.586 9.42827 11.6963C9.53119 11.8065 9.61135 11.936 9.66415 12.0773C9.71694 12.2186 9.74134 12.369 9.73594 12.5197V22.1109C9.73505 22.2645 9.70335 22.4164 9.64272 22.5576C9.5821 22.6987 9.49377 22.8262 9.38297 22.9326C9.27218 23.039 9.14116 23.1221 8.99768 23.177C8.8542 23.2318 8.70118 23.2574 8.54766 23.252C8.39414 23.2467 8.24325 23.2106 8.10393 23.1459C7.9646 23.0813 7.83966 22.9893 7.73652 22.8755C7.63337 22.7616 7.5541 22.6283 7.50341 22.4833C7.45272 22.3383 7.43164 22.1845 7.44141 22.0312V12.4271L7.46191 12.2479C7.51386 11.9805 7.66038 11.7409 7.87463 11.5728C8.08888 11.4047 8.35593 11.3194 8.62793 11.3326ZM15.0527 6.83379C15.3572 6.83379 15.6491 6.95472 15.8644 7.16999C16.0797 7.38525 16.2006 7.67721 16.2006 7.98164V22.0441C16.2006 22.3486 16.0797 22.6405 15.8644 22.8558C15.6491 23.0711 15.3572 23.192 15.0527 23.192C14.7483 23.192 14.4563 23.0711 14.2411 22.8558C14.0258 22.6405 13.9049 22.3486 13.9049 22.0441V7.98164C13.9049 7.67721 14.0258 7.38525 14.2411 7.16999C14.4563 6.95472 14.7483 6.83379 15.0527 6.83379ZM21.4113 16.3986C21.7156 16.3988 22.0073 16.5197 22.2224 16.7348C22.4375 16.95 22.5584 17.2417 22.5586 17.5459V22.0312C22.562 22.1841 22.5349 22.3362 22.4788 22.4784C22.4227 22.6207 22.3387 22.7503 22.2318 22.8596C22.1249 22.969 21.9972 23.0558 21.8563 23.1152C21.7153 23.1745 21.564 23.205 21.411 23.205C21.2581 23.205 21.1067 23.1745 20.9658 23.1152C20.8248 23.0558 20.6972 22.969 20.5903 22.8596C20.4834 22.7503 20.3994 22.6207 20.3433 22.4784C20.2872 22.3362 20.26 22.1841 20.2635 22.0312V17.5459C20.2635 17.3952 20.2932 17.246 20.3509 17.1067C20.4086 16.9675 20.4931 16.841 20.5997 16.7345C20.7063 16.6279 20.8328 16.5434 20.9721 16.4858C21.1114 16.4282 21.2606 16.3986 21.4113 16.3986Z" fill="#222222"/>
<path d="M8.54737 11.2913C8.69813 11.2963 8.84643 11.331 8.98377 11.3934C9.1211 11.4558 9.24478 11.5447 9.34771 11.6549C9.45063 11.7652 9.53079 11.8947 9.58359 12.036C9.63638 12.1773 9.66078 12.3277 9.65538 12.4784V22.0696C9.65449 22.2232 9.62279 22.3751 9.56216 22.5162C9.50153 22.6574 9.41321 22.7849 9.30241 22.8913C9.19162 22.9977 9.0606 23.0808 8.91712 23.1357C8.77364 23.1905 8.62062 23.2161 8.4671 23.2107C8.31358 23.2054 8.16269 23.1693 8.02337 23.1046C7.88404 23.0399 7.7591 22.948 7.65595 22.8341C7.55281 22.7203 7.47354 22.587 7.42285 22.442C7.37216 22.2969 7.35108 22.1432 7.36085 21.9899V12.3858L7.38135 12.2065C7.4333 11.9392 7.57982 11.6996 7.79407 11.5315C8.00832 11.3634 8.27537 11.2781 8.54737 11.2913ZM14.9722 6.79248C15.2766 6.79248 15.5686 6.91341 15.7838 7.12868C15.9991 7.34394 16.12 7.6359 16.12 7.94033V22.0028C16.12 22.3073 15.9991 22.5992 15.7838 22.8145C15.5686 23.0298 15.2766 23.1507 14.9722 23.1507C14.6677 23.1507 14.3758 23.0298 14.1605 22.8145C13.9453 22.5992 13.8243 22.3073 13.8243 22.0028V7.94033C13.8243 7.6359 13.9453 7.34394 14.1605 7.12868C14.3758 6.91341 14.6677 6.79248 14.9722 6.79248ZM21.3308 16.3573C21.635 16.3575 21.9267 16.4784 22.1418 16.6935C22.357 16.9086 22.4779 17.2004 22.478 17.5046V21.9899C22.4815 22.1428 22.4544 22.2949 22.3982 22.4371C22.3421 22.5794 22.2582 22.709 22.1512 22.8183C22.0443 22.9277 21.9167 23.0145 21.7757 23.0739C21.6348 23.1332 21.4834 23.1637 21.3305 23.1637C21.1776 23.1637 21.0262 23.1332 20.8852 23.0739C20.7443 23.0145 20.6166 22.9277 20.5097 22.8183C20.4028 22.709 20.3188 22.5794 20.2627 22.4371C20.2066 22.2949 20.1795 22.1428 20.1829 21.9899V17.5046C20.1829 17.3539 20.2126 17.2046 20.2703 17.0654C20.328 16.9262 20.4126 16.7997 20.5192 16.6931C20.6257 16.5866 20.7523 16.5021 20.8915 16.4445C21.0308 16.3869 21.1801 16.3572 21.3308 16.3573Z" fill="#3913C5"/>
</svg>
